<svg xmlns="http://www.w3.org/2000/svg" width="55.938" height="37.292" viewBox="0 0 55.938 37.292">
  <path id="Icon_material-devices" data-name="Icon material-devices" d="M9.323,10.661H51.276V6H9.323a4.675,4.675,0,0,0-4.661,4.661V36.3H0v6.992H32.63V36.3H9.323Zm44.284,4.661H39.622a2.338,2.338,0,0,0-2.331,2.331V40.961a2.338,2.338,0,0,0,2.331,2.331H53.607a2.338,2.338,0,0,0,2.331-2.331V17.654A2.338,2.338,0,0,0,53.607,15.323ZM51.276,36.3H41.953V19.984h9.323Z" transform="translate(0 -6)" fill="#d19fff"/>
</svg>
