<svg xmlns="http://www.w3.org/2000/svg" width="31.504" height="31.504" viewBox="0 0 31.504 31.504">
  <g id="Icon_material-dialpad" data-name="Icon material-dialpad" transform="translate(-6 -1.5)" fill="none" stroke-linecap="round">
    <path d="M9.938,1.5a3.938,3.938,0,1,0,3.938,3.938A3.95,3.95,0,0,0,9.938,1.5Zm0,11.814a3.938,3.938,0,1,0,3.938,3.938A3.95,3.95,0,0,0,9.938,13.314Zm0,11.814a3.938,3.938,0,1,0,3.938,3.938A3.95,3.95,0,0,0,9.938,25.128ZM33.566,9.376a3.938,3.938,0,1,0-3.938-3.938A3.95,3.95,0,0,0,33.566,9.376ZM21.752,25.128a3.938,3.938,0,1,0,3.938,3.938A3.95,3.95,0,0,0,21.752,25.128Zm11.814,0A3.938,3.938,0,1,0,37.5,29.066,3.95,3.95,0,0,0,33.566,25.128Zm0-11.814A3.938,3.938,0,1,0,37.5,17.252,3.95,3.95,0,0,0,33.566,13.314Zm-11.814,0a3.938,3.938,0,1,0,3.938,3.938A3.95,3.95,0,0,0,21.752,13.314Zm0-11.814A3.938,3.938,0,1,0,25.69,5.438,3.95,3.95,0,0,0,21.752,1.5Z" stroke="none"/>
    <path d="M 9.937984466552734 3.499994277954102 C 8.869373321533203 3.499994277954102 8.000003814697266 4.369375228881836 8.000003814697266 5.437984466552734 C 8.000003814697266 6.506595611572266 8.869373321533203 7.375974655151367 9.937984466552734 7.375974655151367 C 11.006591796875 7.375974655151367 11.87597274780273 6.506595611572266 11.87597274780273 5.437984466552734 C 11.87597274780273 4.369375228881836 11.006591796875 3.499994277954102 9.937984466552734 3.499994277954102 M 21.751953125 3.499994277954102 C 20.6833438873291 3.499994277954102 19.81396293640137 4.369375228881836 19.81396293640137 5.437984466552734 C 19.81396293640137 6.506595611572266 20.6833438873291 7.375974655151367 21.751953125 7.375974655151367 C 22.8205623626709 7.375974655151367 23.68994331359863 6.506595611572266 23.68994331359863 5.437984466552734 C 23.68994331359863 4.369375228881836 22.8205623626709 3.499994277954102 21.751953125 3.499994277954102 M 33.56592178344727 3.499994277954102 C 32.497314453125 3.499994277954102 31.62793350219727 4.369375228881836 31.62793350219727 5.437984466552734 C 31.62793350219727 6.506595611572266 32.497314453125 7.375974655151367 33.56592178344727 7.375974655151367 C 34.6345329284668 7.375974655151367 35.50390243530273 6.506595611572266 35.50390243530273 5.437984466552734 C 35.50390243530273 4.369375228881836 34.6345329284668 3.499994277954102 33.56592178344727 3.499994277954102 M 9.937984466552734 15.31396484375 C 8.869373321533203 15.31396484375 8.000003814697266 16.18334579467773 8.000003814697266 17.25195503234863 C 8.000003814697266 18.32056427001953 8.869373321533203 19.18994522094727 9.937984466552734 19.18994522094727 C 11.006591796875 19.18994522094727 11.87597274780273 18.32056427001953 11.87597274780273 17.25195503234863 C 11.87597274780273 16.18334579467773 11.006591796875 15.31396484375 9.937984466552734 15.31396484375 M 21.751953125 15.31396484375 C 20.6833438873291 15.31396484375 19.81396293640137 16.18334579467773 19.81396293640137 17.25195503234863 C 19.81396293640137 18.32056427001953 20.6833438873291 19.18994522094727 21.751953125 19.18994522094727 C 22.8205623626709 19.18994522094727 23.68994331359863 18.32056427001953 23.68994331359863 17.25195503234863 C 23.68994331359863 16.18334579467773 22.8205623626709 15.31396484375 21.751953125 15.31396484375 M 33.56592178344727 15.31396484375 C 32.497314453125 15.31396484375 31.62793350219727 16.18334579467773 31.62793350219727 17.25195503234863 C 31.62793350219727 18.32056427001953 32.497314453125 19.18994522094727 33.56592178344727 19.18994522094727 C 34.6345329284668 19.18994522094727 35.50390243530273 18.32056427001953 35.50390243530273 17.25195503234863 C 35.50390243530273 16.18334579467773 34.6345329284668 15.31396484375 33.56592178344727 15.31396484375 M 9.937984466552734 27.1279354095459 C 8.869373321533203 27.1279354095459 8.000003814697266 27.997314453125 8.000003814697266 29.06592559814453 C 8.000003814697266 30.13453483581543 8.869373321533203 31.00390434265137 9.937984466552734 31.00390434265137 C 11.006591796875 31.00390434265137 11.87597274780273 30.13453483581543 11.87597274780273 29.06592559814453 C 11.87597274780273 27.997314453125 11.006591796875 27.1279354095459 9.937984466552734 27.1279354095459 M 21.751953125 27.1279354095459 C 20.6833438873291 27.1279354095459 19.81396293640137 27.997314453125 19.81396293640137 29.06592559814453 C 19.81396293640137 30.13453483581543 20.6833438873291 31.00390434265137 21.751953125 31.00390434265137 C 22.8205623626709 31.00390434265137 23.68994331359863 30.13453483581543 23.68994331359863 29.06592559814453 C 23.68994331359863 27.997314453125 22.8205623626709 27.1279354095459 21.751953125 27.1279354095459 M 33.56592178344727 27.1279354095459 C 32.497314453125 27.1279354095459 31.62793350219727 27.997314453125 31.62793350219727 29.06592559814453 C 31.62793350219727 30.13453483581543 32.497314453125 31.00390434265137 33.56592178344727 31.00390434265137 C 34.6345329284668 31.00390434265137 35.50390243530273 30.13453483581543 35.50390243530273 29.06592559814453 C 35.50390243530273 27.997314453125 34.6345329284668 27.1279354095459 33.56592178344727 27.1279354095459 M 9.937984466552734 1.499996185302734 C 12.10388374328613 1.499996185302734 13.87597274780273 3.2720947265625 13.87597274780273 5.437984466552734 C 13.87597274780273 7.603885650634766 12.10388374328613 9.375974655151367 9.937984466552734 9.375974655151367 C 7.7720947265625 9.375974655151367 6.000003814697266 7.603885650634766 6.000003814697266 5.437984466552734 C 6.000003814697266 3.2720947265625 7.7720947265625 1.499996185302734 9.937984466552734 1.499996185302734 Z M 21.751953125 1.499996185302734 C 23.9178524017334 1.499996185302734 25.68994331359863 3.2720947265625 25.68994331359863 5.437984466552734 C 25.68994331359863 7.603885650634766 23.9178524017334 9.375974655151367 21.751953125 9.375974655151367 C 19.5860538482666 9.375974655151367 17.81396293640137 7.603885650634766 17.81396293640137 5.437984466552734 C 17.81396293640137 3.2720947265625 19.5860538482666 1.499996185302734 21.751953125 1.499996185302734 Z M 33.56592178344727 1.499996185302734 C 35.7318115234375 1.499996185302734 37.50390243530273 3.2720947265625 37.50390243530273 5.437984466552734 C 37.50390243530273 7.603885650634766 35.7318115234375 9.375974655151367 33.56592178344727 9.375974655151367 C 31.4000244140625 9.375974655151367 29.62793350219727 7.603885650634766 29.62793350219727 5.437984466552734 C 29.62793350219727 3.2720947265625 31.4000244140625 1.499996185302734 33.56592178344727 1.499996185302734 Z M 9.937984466552734 13.31396484375 C 12.10388374328613 13.31396484375 13.87597274780273 15.08605575561523 13.87597274780273 17.25195503234863 C 13.87597274780273 19.41784477233887 12.10388374328613 21.18994522094727 9.937984466552734 21.18994522094727 C 7.7720947265625 21.18994522094727 6.000003814697266 19.41784477233887 6.000003814697266 17.25195503234863 C 6.000003814697266 15.08605575561523 7.7720947265625 13.31396484375 9.937984466552734 13.31396484375 Z M 21.751953125 13.31396484375 C 23.9178524017334 13.31396484375 25.68994331359863 15.08605575561523 25.68994331359863 17.25195503234863 C 25.68994331359863 19.41784477233887 23.9178524017334 21.18994522094727 21.751953125 21.18994522094727 C 19.5860538482666 21.18994522094727 17.81396293640137 19.41784477233887 17.81396293640137 17.25195503234863 C 17.81396293640137 15.08605575561523 19.5860538482666 13.31396484375 21.751953125 13.31396484375 Z M 33.56592178344727 13.31396484375 C 35.7318115234375 13.31396484375 37.50390243530273 15.08605575561523 37.50390243530273 17.25195503234863 C 37.50390243530273 19.41784477233887 35.7318115234375 21.18994522094727 33.56592178344727 21.18994522094727 C 31.4000244140625 21.18994522094727 29.62793350219727 19.41784477233887 29.62793350219727 17.25195503234863 C 29.62793350219727 15.08605575561523 31.4000244140625 13.31396484375 33.56592178344727 13.31396484375 Z M 9.937984466552734 25.1279354095459 C 12.10388374328613 25.1279354095459 13.87597274780273 26.9000244140625 13.87597274780273 29.06592559814453 C 13.87597274780273 31.23181533813477 12.10388374328613 33.00390625 9.937984466552734 33.00390625 C 7.7720947265625 33.00390625 6.000003814697266 31.23181533813477 6.000003814697266 29.06592559814453 C 6.000003814697266 26.9000244140625 7.7720947265625 25.1279354095459 9.937984466552734 25.1279354095459 Z M 21.751953125 25.1279354095459 C 23.9178524017334 25.1279354095459 25.68994331359863 26.9000244140625 25.68994331359863 29.06592559814453 C 25.68994331359863 31.23181533813477 23.9178524017334 33.00390625 21.751953125 33.00390625 C 19.5860538482666 33.00390625 17.81396293640137 31.23181533813477 17.81396293640137 29.06592559814453 C 17.81396293640137 26.9000244140625 19.5860538482666 25.1279354095459 21.751953125 25.1279354095459 Z M 33.56592178344727 25.1279354095459 C 35.7318115234375 25.1279354095459 37.50390243530273 26.9000244140625 37.50390243530273 29.06592559814453 C 37.50390243530273 31.23181533813477 35.7318115234375 33.00390625 33.56592178344727 33.00390625 C 31.4000244140625 33.00390625 29.62793350219727 31.23181533813477 29.62793350219727 29.06592559814453 C 29.62793350219727 26.9000244140625 31.4000244140625 25.1279354095459 33.56592178344727 25.1279354095459 Z" stroke="none" fill="#ff6004"/>
  </g>
</svg>
