<svg xmlns="http://www.w3.org/2000/svg" width="32" height="32" viewBox="0 0 32 32">
  <g id="Icon_feather-server" data-name="Icon feather-server" transform="translate(-2 -2)">
    <path id="Path_1271" data-name="Path 1271" d="M6,3H30a3,3,0,0,1,3,3v6a3,3,0,0,1-3,3H6a3,3,0,0,1-3-3V6A3,3,0,0,1,6,3Z" fill="none" stroke="#ffb600" stroke-linecap="round" stroke-linejoin="round" stroke-width="2"/>
    <path id="Path_1272" data-name="Path 1272" d="M6,21H30a3,3,0,0,1,3,3v6a3,3,0,0,1-3,3H6a3,3,0,0,1-3-3V24a3,3,0,0,1,3-3Z" fill="none" stroke="#ffb600" stroke-linecap="round" stroke-linejoin="round" stroke-width="2"/>
    <path id="Path_1273" data-name="Path 1273" d="M9,9H9" fill="none" stroke="#ffb600" stroke-linecap="round" stroke-linejoin="round" stroke-width="2"/>
    <path id="Path_1274" data-name="Path 1274" d="M9,27H9" fill="none" stroke="#ffb600" stroke-linecap="round" stroke-linejoin="round" stroke-width="2"/>
  </g>
</svg>
