<svg xmlns="http://www.w3.org/2000/svg" width="23.337" height="31.5" viewBox="0 0 23.337 31.5">
  <path id="Icon_ionic-ios-git-branch" data-name="Icon ionic-ios-git-branch" d="M18.422,27a4.919,4.919,0,0,1-.991-9.738c-.084-1.343-.724-2.06-1.9-2.967a10.383,10.383,0,0,0-4.591-1.645,7.955,7.955,0,0,1-5.1-2.812v11.9a4.919,4.919,0,1,1-1.969.028V9.724A4.951,4.951,0,0,1,1.223,8.156a4.917,4.917,0,1,1,6.462.837,6.127,6.127,0,0,0,3.593,1.716,12.2,12.2,0,0,1,5.442,2.025,5.742,5.742,0,0,1,2.672,4.521A4.922,4.922,0,0,1,18.422,27ZM1.969,26.578a2.953,2.953,0,1,0,2.953-2.953A2.953,2.953,0,0,0,1.969,26.578ZM7.875,4.922A2.953,2.953,0,1,0,4.922,7.875,2.953,2.953,0,0,0,7.875,4.922Zm10.547,14.2a2.953,2.953,0,1,0,2.953,2.953A2.953,2.953,0,0,0,18.422,19.125Z" fill="#ff42a9"/>
</svg>
