<svg xmlns="http://www.w3.org/2000/svg" width="26.379" height="26.379" viewBox="0 0 26.379 26.379">
  <g id="Icon_feather-headphones" data-name="Icon feather-headphones" transform="translate(-3.5 -3.5)">
    <path id="Path_1275" data-name="Path 1275" d="M4.5,24.816V16.689a12.189,12.189,0,1,1,24.379,0v8.126" fill="none" stroke="#ad5cf0" stroke-linecap="round" stroke-linejoin="round" stroke-width="2"/>
    <path id="Path_1276" data-name="Path 1276" d="M28.879,27.772a2.709,2.709,0,0,1-2.709,2.709H24.816a2.709,2.709,0,0,1-2.709-2.709V23.709A2.709,2.709,0,0,1,24.816,21h4.063Zm-24.379,0a2.709,2.709,0,0,0,2.709,2.709H8.563a2.709,2.709,0,0,0,2.709-2.709V23.709A2.709,2.709,0,0,0,8.563,21H4.5Z" transform="translate(0 -1.602)" fill="none" stroke="#ad5cf0" stroke-linecap="round" stroke-linejoin="round" stroke-width="2"/>
  </g>
</svg>
