<svg id="Group_1451" data-name="Group 1451" xmlns="http://www.w3.org/2000/svg" xmlns:xlink="http://www.w3.org/1999/xlink" width="146" height="37.232" viewBox="0 0 146 37.232">
  <defs>
    <clipPath id="clip-path">
      <path id="Path_122" data-name="Path 122" d="M26.975-16.936C25.26-18.9,22.16-19.744,18.2-19.744H6.687a1.651,1.651,0,0,0-1.629,1.4L.268,12.211a1,1,0,0,0,.225.8.986.986,0,0,0,.751.347h7.1L10.134,1.979l-.055.356A1.646,1.646,0,0,1,11.7.938h3.376C21.709.938,26.9-1.77,28.419-9.606q.068-.348.118-.678c.451-2.9,0-4.867-1.561-6.652" transform="translate(-0.256 19.744)" fill="none"/>
    </clipPath>
    <clipPath id="clip-path-2">
      <path id="Path_121" data-name="Path 121" d="M-958,3218.275H2136.463V-2110H-958Z" transform="translate(958 2110)" fill="none"/>
    </clipPath>
    <clipPath id="clip-path-3">
      <path id="Path_125" data-name="Path 125" d="M65.405-7.16c-.434,2.867-2.612,2.867-4.718,2.867h-1.2l.841-5.353a.663.663,0,0,1,.654-.561h.55c1.434,0,2.788,0,3.487.821a2.681,2.681,0,0,1,.385,2.227m-.917-7.481H56.544a1.108,1.108,0,0,0-1.092.937L52.241,6.777a.669.669,0,0,0,.151.536.661.661,0,0,0,.5.234h4.077a.774.774,0,0,0,.763-.655l.912-5.808a1.106,1.106,0,0,1,1.09-.937H62.25c5.234,0,8.254-2.545,9.043-7.592.355-2.206.014-3.94-1.013-5.155-1.13-1.335-3.132-2.041-5.791-2.041" transform="translate(-52.233 14.642)" fill="none"/>
    </clipPath>
    <clipPath id="clip-path-5">
      <path id="Path_128" data-name="Path 128" d="M36.106-7.16c-.434,2.867-2.612,2.867-4.719,2.867h-1.2l.841-5.353a.663.663,0,0,1,.654-.561h.55c1.434,0,2.788,0,3.487.821a2.677,2.677,0,0,1,.386,2.227m-.917-7.481H27.244a1.107,1.107,0,0,0-1.091.937L22.942,6.777a.668.668,0,0,0,.15.536.66.66,0,0,0,.5.233h3.794a1.106,1.106,0,0,0,1.09-.937l.868-5.525a1.105,1.105,0,0,1,1.09-.937h2.514c5.234,0,8.254-2.546,9.043-7.593.355-2.206.014-3.94-1.013-5.155-1.13-1.335-3.132-2.041-5.791-2.041M53.634.193A4.249,4.249,0,0,1,49.34,3.846a3.2,3.2,0,0,1-2.555-1.033,3.26,3.26,0,0,1-.6-2.686,4.264,4.264,0,0,1,4.263-3.681,3.2,3.2,0,0,1,2.536,1.042,3.306,3.306,0,0,1,.645,2.7m5.3-7.446h-3.8a.664.664,0,0,0-.656.563L54.31-5.621l-.266-.387c-.824-1.2-2.66-1.6-4.494-1.6A8.765,8.765,0,0,0,41.058.081a7.25,7.25,0,0,0,1.417,5.877A5.937,5.937,0,0,0,47.266,7.9a7.269,7.269,0,0,0,5.267-2.187l-.17,1.063a.668.668,0,0,0,.151.536.66.66,0,0,0,.5.233h3.425a1.106,1.106,0,0,0,1.091-.937L59.591-6.483a.669.669,0,0,0-.152-.537.661.661,0,0,0-.5-.233" transform="translate(-22.934 14.642)" fill="none"/>
    </clipPath>
    <clipPath id="clip-path-7">
      <path id="Path_131" data-name="Path 131" d="M74.236-3.2A4.249,4.249,0,0,1,69.941.451,3.2,3.2,0,0,1,67.387-.582a3.26,3.26,0,0,1-.6-2.686,4.263,4.263,0,0,1,4.263-3.681A3.2,3.2,0,0,1,73.59-5.907a3.306,3.306,0,0,1,.645,2.7m5.3-7.446h-3.8a.664.664,0,0,0-.656.563l-.166,1.069L74.645-9.4c-.824-1.2-2.66-1.6-4.494-1.6A8.767,8.767,0,0,0,61.66-3.314a7.251,7.251,0,0,0,1.418,5.877,5.937,5.937,0,0,0,4.791,1.944A7.27,7.27,0,0,0,73.136,2.32l-.17,1.063a.666.666,0,0,0,.149.536.658.658,0,0,0,.5.233h3.424a1.108,1.108,0,0,0,1.092-.937L80.192-9.878a.669.669,0,0,0-.152-.537.661.661,0,0,0-.5-.233" transform="translate(-61.546 11.008)" fill="none"/>
    </clipPath>
    <clipPath id="clip-path-9">
      <path id="Path_134" data-name="Path 134" d="M60.587-10.821H56.762a1.1,1.1,0,0,0-.912.487L50.575-2.523l-2.236-7.506a1.107,1.107,0,0,0-1.058-.793H43.522a.661.661,0,0,0-.539.279.669.669,0,0,0-.088.6l4.21,12.426L43.145,8.1a.669.669,0,0,0-.047.69.662.662,0,0,0,.588.36h3.821a1.1,1.1,0,0,0,.907-.477L61.13-9.775a.668.668,0,0,0,.043-.688.661.661,0,0,0-.586-.357" transform="translate(-42.86 10.822)" fill="none"/>
    </clipPath>
    <clipPath id="clip-path-11">
      <path id="Path_137" data-name="Path 137" d="M74.746-14.079,71.484,6.777a.669.669,0,0,0,.151.536.661.661,0,0,0,.5.233h3.279a1.107,1.107,0,0,0,1.091-.937l3.215-20.482a.668.668,0,0,0-.151-.536.66.66,0,0,0-.5-.233H75.4a.662.662,0,0,0-.655.562" transform="translate(-71.476 14.642)" fill="none"/>
    </clipPath>
    <clipPath id="clip-path-15">
      <path id="Path_143" data-name="Path 143" d="M12.051-10.246a1.445,1.445,0,0,1,1.423-1.222H22.5a18.869,18.869,0,0,1,2.976.216,12.445,12.445,0,0,1,1.475.332,8.126,8.126,0,0,1,1.589.636c.453-2.9,0-4.867-1.56-6.653-1.716-1.964-4.814-2.806-8.78-2.806H6.686a1.651,1.651,0,0,0-1.627,1.4L.268,12.209a1,1,0,0,0,.224.8.985.985,0,0,0,.751.348H8.349l1.784-11.38,1.918-12.223Z" transform="translate(-0.255 19.743)" fill="none"/>
    </clipPath>
    <clipPath id="clip-path-17">
      <path id="Path_146" data-name="Path 146" d="M24.87-14.853q-.053.34-.118.678C23.236-6.341,18.042-3.631,11.409-3.631H8.032a1.644,1.644,0,0,0-1.621,1.4L4.683,8.788l-.492,3.127a.873.873,0,0,0,.2.7.863.863,0,0,0,.658.3h5.989A1.444,1.444,0,0,0,12.457,11.7l.058-.307L13.645,4.2l.072-.4A1.444,1.444,0,0,1,15.14,2.578h.9c5.8,0,10.345-2.369,11.672-9.224.553-2.863.266-5.255-1.2-6.935a5.724,5.724,0,0,0-1.64-1.272" transform="translate(-4.18 14.853)" fill="none"/>
    </clipPath>
    <clipPath id="clip-path-19">
      <path id="Path_149" data-name="Path 149" d="M22.2-14.916q-.347-.1-.716-.185c-.246-.055-.5-.1-.76-.144a18.506,18.506,0,0,0-2.977-.219H8.73a1.441,1.441,0,0,0-1.423,1.223L5.389-2.017l-.055.355a1.644,1.644,0,0,1,1.621-1.4h3.377c6.633,0,11.826-2.709,13.343-10.544.045-.232.083-.456.118-.678a8.167,8.167,0,0,0-1.248-.529c-.112-.037-.225-.072-.341-.107" transform="translate(-5.334 15.465)" fill="none"/>
    </clipPath>
  </defs>
  <g id="Group_82" data-name="Group 82" transform="translate(0.001)" clip-path="url(#clip-path)">
    <g id="Group_81" data-name="Group 81" transform="translate(-1853.305 -4042.636)" clip-path="url(#clip-path-2)">
      <path id="Path_120" data-name="Path 120" d="M-4.744,27.7H43.043V-24.744H-4.744Z" transform="translate(1848.379 4057.71)" fill="#003087"/>
    </g>
  </g>
  <g id="Group_84" data-name="Group 84" transform="translate(100.527 9.866)" clip-path="url(#clip-path-3)">
    <g id="Group_83" data-name="Group 83" transform="translate(-1953.831 -4052.502)" clip-path="url(#clip-path-2)">
      <path id="Path_123" data-name="Path 123" d="M47.233,21.887H85.77V-19.642H47.233Z" transform="translate(1896.928 4062.474)" fill="#009bdd"/>
    </g>
  </g>
  <g id="Group_86" data-name="Group 86" transform="translate(43.86 9.866)" clip-path="url(#clip-path-5)">
    <g id="Group_85" data-name="Group 85" transform="translate(-1897.164 -4052.502)" clip-path="url(#clip-path-2)">
      <path id="Path_126" data-name="Path 126" d="M17.934,22.243H73.939V-19.642H17.934Z" transform="translate(1869.561 4062.474)" fill="#003087"/>
    </g>
  </g>
  <g id="Group_88" data-name="Group 88" transform="translate(118.538 16.896)" clip-path="url(#clip-path-7)">
    <g id="Group_87" data-name="Group 87" transform="translate(-1971.842 -4059.531)" clip-path="url(#clip-path-2)">
      <path id="Path_129" data-name="Path 129" d="M56.546,18.848H94.54V-16.008H56.546Z" transform="translate(1905.626 4065.87)" fill="#009bdd"/>
    </g>
  </g>
  <g id="Group_90" data-name="Group 90" transform="translate(82.399 17.256)" clip-path="url(#clip-path-9)">
    <g id="Group_89" data-name="Group 89" transform="translate(-1935.702 -4059.892)" clip-path="url(#clip-path-2)">
      <path id="Path_132" data-name="Path 132" d="M37.86,23.5H75.589V-15.822H37.86Z" transform="translate(1888.172 4066.043)" fill="#003087"/>
    </g>
  </g>
  <g id="Group_92" data-name="Group 92" transform="translate(137.744 9.867)" clip-path="url(#clip-path-11)">
    <g id="Group_91" data-name="Group 91" transform="translate(-1991.048 -4052.503)" clip-path="url(#clip-path-2)">
      <path id="Path_135" data-name="Path 135" d="M66.476,21.887h27.6V-19.642h-27.6Z" transform="translate(1914.901 4062.475)" fill="#009bdd"/>
    </g>
  </g>
  <g id="Group_94" data-name="Group 94" transform="translate(0.001)" clip-path="url(#clip-path)">
    <g id="Group_93" data-name="Group 93" transform="translate(-1853.305 -4042.636)" clip-path="url(#clip-path-2)">
      <path id="Path_138" data-name="Path 138" d="M-4.744,27.7H43.043V-24.744H-4.744Z" transform="translate(1848.379 4057.71)" fill="#003087"/>
    </g>
  </g>
  <g id="Group_96" data-name="Group 96" transform="translate(0 0.001)" clip-path="url(#clip-path-15)">
    <g id="Group_95" data-name="Group 95" transform="translate(-1853.304 -4042.637)" clip-path="url(#clip-path-2)">
      <path id="Path_141" data-name="Path 141" d="M-4.745,27.7H43.042V-24.743H-4.745Z" transform="translate(1848.378 4057.709)" fill="#003087"/>
    </g>
  </g>
  <g id="Group_98" data-name="Group 98" transform="translate(7.591 9.459)" clip-path="url(#clip-path-17)">
    <g id="Group_97" data-name="Group 97" transform="translate(-1860.895 -4052.095)" clip-path="url(#clip-path-2)">
      <path id="Path_144" data-name="Path 144" d="M-.82,27.26H42.311V-19.853H-.82Z" transform="translate(1852.044 4062.278)" fill="#009bdd"/>
    </g>
  </g>
  <g id="Group_100" data-name="Group 100" transform="translate(9.822 8.275)" clip-path="url(#clip-path-19)">
    <g id="Group_99" data-name="Group 99" transform="translate(-1863.126 -4050.911)" clip-path="url(#clip-path-2)">
      <path id="Path_147" data-name="Path 147" d="M.334,12.679h37.8V-20.465H.334Z" transform="translate(1853.122 4061.706)" fill="#012168"/>
    </g>
  </g>
</svg>
