<svg xmlns="http://www.w3.org/2000/svg" width="36.597" height="36.597" viewBox="0 0 36.597 36.597">
  <path id="Icon" d="M18.28,36.6A18.3,18.3,0,1,1,36.6,18.3,18.31,18.31,0,0,1,18.28,36.6ZM18.3,3.659A14.639,14.639,0,1,0,32.937,18.3,14.656,14.656,0,0,0,18.3,3.659Zm0,24.7a10.088,10.088,0,0,1-8.692-5.031.9.9,0,0,1,.008-.907.916.916,0,0,1,.8-.467H26.185a.916.916,0,0,1,.8.462.9.9,0,0,1,0,.912A10.088,10.088,0,0,1,18.3,28.362Zm6.4-11.894a2.745,2.745,0,1,1,2.745-2.745A2.748,2.748,0,0,1,24.7,16.469Zm-12.809,0a2.745,2.745,0,1,1,2.745-2.745A2.748,2.748,0,0,1,11.894,16.469Z" fill="#fcff8e"/>
</svg>
