<svg xmlns="http://www.w3.org/2000/svg" width="24" height="24" viewBox="0 0 24 24">
  <path id="Subtraction_1" data-name="Subtraction 1" d="M12,24A12,12,0,0,1,3.515,3.515,12,12,0,1,1,20.485,20.485,11.922,11.922,0,0,1,12,24ZM11.857,5.3A5.663,5.663,0,0,0,7.462,7.122a7,7,0,0,0-1.65,4.861,7.063,7.063,0,0,0,1.654,4.866A5.543,5.543,0,0,0,11.788,18.7a4.73,4.73,0,0,0,2.12-.449,4.549,4.549,0,0,0,1.61-1.408l.319,1.5H17.59V11.465H12.323V13.64h2.885a3.247,3.247,0,0,1-1.036,2.012,3.063,3.063,0,0,1-2.082.734,3.185,3.185,0,0,1-2.607-1.175,5.043,5.043,0,0,1-.95-3.246,5.166,5.166,0,0,1,.911-3.234,3.016,3.016,0,0,1,2.508-1.17A3.36,3.36,0,0,1,13.9,8.08a2.476,2.476,0,0,1,.989,1.511h2.669a4.613,4.613,0,0,0-1.8-3.148A6.32,6.32,0,0,0,11.857,5.3Z" fill="#9ca6b2"/>
</svg>
